<svg viewBox="0 0 326 283.510009765625" xmlns="http://www.w3.org/2000/svg" width="200" height="200">
  <g fill-rule="evenodd">
    <path fill="#0c3399" d="M0 0l163.23 283.51 41-70.73L81.23 0H0z"></path>
    <path fill="#ff6634" opacity=".8" d="M0 0h326l-40 71H41L0 0z"></path>
    <path fill="#cc3198" opacity=".8" d="M55 95h218.46l-40 71H96L55 95z"></path>
  </g>
  <g fill="#333">
    <path d="M29.79 0L39.81 0L24.31-38.76L15.50-38.76L0 0L10.02 0L12.24-6.09L27.57-6.09ZM15.23-14.23L17.99-21.76C18.82-23.97 19.82-27.46 19.88-27.46L19.93-27.46C19.99-27.46 20.98-23.97 21.81-21.76L24.58-14.23Z" transform="translate(0, 38.757305444478625)"></path>
    <path d="M4.32-38.76L4.32 0L21.04 0C30.62 0 34.88-5.26 34.88-11.74C34.88-15.67 31.73-19.88 28.07-20.87L28.07-20.93C30.40-21.76 32.89-24.86 32.89-28.51C32.89-34.16 28.07-38.76 21.15-38.76ZM13.62-23.64L13.62-30.95L19.21-30.95C21.70-30.95 23.53-29.40 23.53-27.30C23.53-25.19 21.70-23.64 19.21-23.64ZM13.62-7.81L13.62-16.55L20.10-16.55C23.03-16.55 25.14-14.89 25.14-12.18C25.14-9.63 23.20-7.81 20.10-7.81Z" transform="translate(-4.318671178099047, 38.757305444478625)"></path>
    <path d="M13.62-8.69L13.62-38.76L4.32-38.76L4.32 0L31.95 0L31.95-8.69Z" transform="translate(-4.318671178099046, 38.757305444478625)"></path>
    <path d="M13.62-8.69L13.62-15.56L28.40-15.56L28.40-23.70L13.62-23.70L13.62-30.06L32.50-30.06L32.50-38.76L4.32-38.76L4.32 0L32.83 0L32.83-8.69Z" transform="translate(-4.318671178099047, 38.757305444478625)"></path>
  </g>
</svg>
